<?xml version="1.0" ?><!DOCTYPE svg  PUBLIC '-//W3C//DTD SVG 1.1//EN'  'http://www.w3.org/Graphics/SVG/1.1/DTD/svg11.dtd'><svg height="8.4666mm" style="shape-rendering:geometricPrecision; text-rendering:geometricPrecision; image-rendering:optimizeQuality; fill-rule:evenodd; clip-rule:evenodd" version="1.1" viewBox="0 0 847 847" width="8.4666mm" xml:space="preserve" xmlns="http://www.w3.org/2000/svg" xmlns:xlink="http://www.w3.org/1999/xlink"><defs><style type="text/css">
   <![CDATA[
    .fil1 {fill:#FEFEFE}
    .fil0 {fill:#3685D0}
   ]]>
  </style></defs><g id="Layer_x0020_1"><circle class="fil0" cx="423" cy="423" r="342"/><g id="_1965096635728"><path class="fil1" d="M428 319c10,1 18,-1 26,-5 52,-27 111,-15 142,31 -29,16 -48,46 -48,81 0,38 23,70 56,85 -19,73 -56,115 -96,128 -32,9 -53,-15 -80,-14 -26,1 -46,23 -77,14 -52,-17 -100,-85 -108,-206 -7,-114 86,-159 162,-119 7,4 14,5 23,5z"/><path class="fil1" d="M520 205c-10,51 -30,70 -90,88 15,-60 37,-80 90,-88z"/></g></g></svg>