<svg xmlns="http://www.w3.org/2000/svg" viewBox="-5960 20 157.737 40" class="light"><defs><style>.cls-1{fill:#fff}</style></defs><g id="logo-dxFeed-white" transform="translate(-6220 5)"><g id="Group_82" data-name="Group 82" transform="translate(331.193 23.659)"><path id="Path_116" d="M149.915 37.182a4.5 4.5 0 01-3.838-1.919A8.7 8.7 0 01144.7 30a8.853 8.853 0 011.427-5.314 4.97 4.97 0 017.921.1h.148a15.056 15.056 0 01-.3-2.755V17.6h3.788v19.287h-2.9l-.738-1.82h-.146a4.416 4.416 0 01-3.985 2.115zm1.328-3a2.566 2.566 0 002.116-.836 4.981 4.981 0 00.738-2.854V30.1a5.817 5.817 0 00-.689-3.2 2.513 2.513 0 00-2.214-.984A2.221 2.221 0 00149.226 27a6.028 6.028 0 00-.689 3.1 5.478 5.478 0 00.689 3.05 2.253 2.253 0 002.018 1.031z" class="cls-1" data-name="Path 116" transform="translate(-144.7 -17.6)"/><path id="Path_117" d="M180.025 35.49l-4.477-6.79h4.28l2.706 4.428 2.706-4.428h4.28l-4.477 6.79 4.723 7.085h-4.28l-2.9-4.772-2.9 4.772H175.4z" class="cls-1" data-name="Path 117" transform="translate(-160.295 -23.239)"/><path id="Path_118" d="M212.888 38.206H209.1V20.1h10.381v3.149h-6.593v4.674h6.15v3.149h-6.15v7.134z" class="cls-1" data-name="Path 118" transform="translate(-177.415 -18.87)"/><path id="Path_119" d="M240.685 42.516a7.116 7.116 0 01-5.215-1.87 6.848 6.848 0 01-1.87-5.215 7.935 7.935 0 011.722-5.412 6.192 6.192 0 014.822-1.919 6.02 6.02 0 014.576 1.673 6.387 6.387 0 011.624 4.625v1.82h-8.954a3.629 3.629 0 00.935 2.509 3.394 3.394 0 002.509.886 11.991 11.991 0 002.362-.246 9.418 9.418 0 002.312-.836v2.9a7.709 7.709 0 01-2.116.738 7.238 7.238 0 01-2.707.347zm-.541-11.661a2.409 2.409 0 00-1.87.738 3.464 3.464 0 00-.787 2.165h5.313a2.96 2.96 0 00-.738-2.165 2.6 2.6 0 00-1.918-.738z" class="cls-1" data-name="Path 119" transform="translate(-189.861 -22.934)"/><path id="Path_120" d="M270.785 42.516a7.116 7.116 0 01-5.215-1.87 6.848 6.848 0 01-1.87-5.215 7.935 7.935 0 011.722-5.412 6.192 6.192 0 014.822-1.919 6.019 6.019 0 014.576 1.673 6.387 6.387 0 011.624 4.625v1.82h-8.955a3.629 3.629 0 00.935 2.509 3.394 3.394 0 002.509.886 11.991 11.991 0 002.362-.246 9.418 9.418 0 002.312-.836v2.9a7.709 7.709 0 01-2.116.738 7.239 7.239 0 01-2.706.347zm-.541-11.661a2.409 2.409 0 00-1.87.738 3.464 3.464 0 00-.787 2.165h5.313a2.96 2.96 0 00-.738-2.165 2.52 2.52 0 00-1.918-.738z" class="cls-1" data-name="Path 120" transform="translate(-205.151 -22.934)"/><path id="Path_121" d="M299.415 37.182a4.5 4.5 0 01-3.838-1.919A8.7 8.7 0 01294.2 30a8.853 8.853 0 011.427-5.314 4.97 4.97 0 017.921.1h.148a15.056 15.056 0 01-.3-2.755V17.6h3.788v19.287h-2.9l-.738-1.82h-.146a4.416 4.416 0 01-3.985 2.115zm1.328-3a2.566 2.566 0 002.116-.836 4.981 4.981 0 00.738-2.854V30.1a5.817 5.817 0 00-.689-3.2 2.513 2.513 0 00-2.214-.984A2.221 2.221 0 00298.726 27a6.028 6.028 0 00-.689 3.1 5.477 5.477 0 00.689 3.05 2.253 2.253 0 002.018 1.031z" class="cls-1" data-name="Path 121" transform="translate(-220.645 -17.6)"/></g><path id="Path_122" d="M23.329 16.581h4.379v-3.346L12.259 4.674h15.449V0H.5v16.581h4.674V6.347l.1.049z" class="cls-1" data-name="Path 122" transform="translate(259.746 15)"/><path id="Path_123" d="M92.106 16.581V0H64.8v4.674h15.449L64.8 13.235v3.346h4.428L87.383 6.3v10.281z" class="cls-1" data-name="Path 123" transform="translate(227.082 15)"/><path id="Path_124" d="M80.938 53.657H64.8v4.674h27.306V41.8h-4.723v9.84l-.049-.049L69.917 41.8H64.8v2.9z" class="cls-1" data-name="Path 124" transform="translate(227.082 -6.234)"/><path id="Path_125" d="M0 41.7v4.772h15.99L0 55.378v5.806l22.534-12.6v9.746h4.772V41.7z" data-name="Path 125" transform="translate(260 -6.183)" fill="#e6411d"/></g></svg>